<?xml version="1.0" encoding="UTF-8" standalone="no"?>
<!-- Created with Inkscape (http://www.inkscape.org/) -->

<svg
   xmlns:dc="http://purl.org/dc/elements/1.1/"
   xmlns:cc="http://creativecommons.org/ns#"
   xmlns:rdf="http://www.w3.org/1999/02/22-rdf-syntax-ns#"
   xmlns:svg="http://www.w3.org/2000/svg"
   xmlns="http://www.w3.org/2000/svg"
   xmlns:sodipodi="http://sodipodi.sourceforge.net/DTD/sodipodi-0.dtd"
   xmlns:inkscape="http://www.inkscape.org/namespaces/inkscape"
   version="1.1"
   id="svg2"
   xml:space="preserve"
   width="532"
   height="480"
   viewBox="0 0 532 480"
   sodipodi:docname="goethe_head_blue.svg"
   inkscape:version="0.92.1 r"><metadata
     id="metadata8"><rdf:RDF><cc:Work
         rdf:about=""><dc:format>image/svg+xml</dc:format><dc:type
           rdf:resource="http://purl.org/dc/dcmitype/StillImage" /><dc:title></dc:title></cc:Work></rdf:RDF></metadata><defs
     id="defs6" /><sodipodi:namedview
     pagecolor="#ffffff"
     bordercolor="#666666"
     borderopacity="1"
     objecttolerance="10"
     gridtolerance="10"
     guidetolerance="10"
     inkscape:pageopacity="0"
     inkscape:pageshadow="2"
     inkscape:window-width="958"
     inkscape:window-height="1047"
     id="namedview4"
     showgrid="false"
     inkscape:zoom="0.78551432"
     inkscape:cx="178.29619"
     inkscape:cy="361.45477"
     inkscape:window-x="3520"
     inkscape:window-y="16"
     inkscape:window-maximized="0"
     inkscape:current-layer="g10" /><g
     id="g10"
     inkscape:groupmode="layer"
     inkscape:label="ink_ext_XXXXXX"
     transform="matrix(1.3333333,0,0,-1.3333333,0,480)"><g
       id="g12"
       transform="scale(0.1)"><path
         d="m 1441.65,244.102 c 13.64,-4.063 25.54,-3.313 31.22,-3.313 7.67,0 8.11,1.164 9.71,3.332 l 2444.96,-0.019 C 3988.81,122.195 3989.97,4.10156 3989.97,4.10156 L 0.476563,4.10547 C 0.0625,98.1602 19.6367,176.586 55.5039,244.074 l 1386.1461,0.028"
         style="fill:#1c63b7;fill-opacity:1;fill-rule:evenodd;stroke:none"
         id="path14"
         inkscape:connector-curvature="0" /><path
         d="m 1263.4,484.102 c 69.03,-109.055 139.14,-213.02 148.52,-222.239 9.74,-9.578 20.17,-14.843 29.73,-17.718 L 55.5039,244.102 C 107.828,342.531 194.82,417.703 304.969,484.148 Z m 218.23,0 c 44.05,-66.133 100.46,-124.754 174.03,-162.86 17.4,-8.699 76.77,-37.914 97.55,-37.914 10.64,0 48.34,0.965 48.34,34.801 0,34.801 -56.15,125.586 -79.35,149.266 -6.21,6.214 -13.8,11.695 -22.01,16.671 l 128.09,0.036 c -3.51,-10.075 -5.25,-21.852 -5.25,-34.911 0,-49.304 45.92,-201.082 137.27,-201.082 36.25,0 237.81,45.438 237.81,129.543 0,18.368 -46,89.336 -47.47,90.727 h -13.03 c -15.07,-3.586 -22.61,-5.262 -30.26,-8.754 -39.21,-35.844 -27.4,-95.914 -66.45,-126.492 0,0 -32.76,-2.695 -53.38,0.191 -39.84,5.574 -94.89,10.492 -94.89,40.461 0,15.465 48.33,63.801 71.53,63.801 9.67,0 23.18,-9.617 32.84,-9.617 24.16,0 43.23,25.883 56.38,56.199 l 430.8,-0.066 c -30.74,-29.731 -64.99,-55.051 -103.19,-72.301 -17.88,-7.735 -37.9,-13.914 -57.72,-19.235 -19.81,-5.312 -51.7,-15.398 -51.7,-38.117 0,-30.933 60.42,-102.472 106.34,-102.472 81.21,0 206.61,192.859 228.36,230.566 0.3,0.508 0.6,1.02 0.9,1.539 l 1067.99,0.02 c 58.2,-33.329 107.44,-65.504 140.97,-94.641 50.27,-43.68 86,-94.859 111.41,-145.391 l -2444.96,0.032 c 0.42,0.586 0.92,1.218 1.64,1.921 7.62,7.356 0.16,27.157 0.16,27.157 0.08,8.617 -96.13,132.453 -147.5,210.949 l 144.75,-0.027"
         style="fill:#1c63b7;fill-opacity:1;fill-rule:evenodd;stroke:none"
         id="path16"
         inkscape:connector-curvature="0" /><path
         d="m 1331.41,1124.1 c -5.31,-19.49 -9.34,-35.1 -9.34,-38.39 0,-9.66 -3.87,-34.8 -3.87,-44.47 0,-51.717 65.04,-159.052 94.05,-207.869 54.61,-90.875 148.31,-194.062 239.12,-253.086 28.28,-18.379 69.68,-54.84 102.56,-57.097 4.21,-0.528 7.23,-0.086 10.46,0.765 67.58,15.133 234.36,221.141 234.36,275.61 0,9.664 -4.28,16.66 -10.02,23.832 -16.48,5.082 -30.57,8.07 -42.17,8.07 -72.02,0.484 -162.81,24.34 -232.42,69.289 -52.68,34.32 -131.49,97.711 -171.12,147.496 -18.45,22.93 -36.12,49.06 -52.21,75.84 l 105.14,0.01 c 79.13,-65.65 167.46,-128.78 216.94,-129.674 h 150.79 c 62.84,0 157.09,36.254 157.09,127.614 0,0.68 -0.01,1.37 -0.02,2.05 l 431.23,0.01 c -77.85,-128.366 -235.71,-217.479 -360.44,-271.459 -32.39,-14.016 -123.28,-28.868 -127.14,-29.352 -8.22,-1.449 -24.83,-13.508 -24.83,-28.008 0,-9.672 21.01,-46.828 33.57,-70.511 17.89,-33.836 36,-72.512 60.66,-108.625 17.59,-25.762 86.22,-93.321 128.11,-89.618 58.97,5.215 205.05,103.578 214.09,110.336 47.4,35.481 101.75,111.504 130.26,158.871 21.27,35.77 59.73,115.551 59.73,160.02 0,6.953 -9.93,91.566 -21.86,168.416 l 442.46,-0.07 c -25.21,-53.16 -55.86,-116.64 -89.67,-194.256 -4.99,-11.442 -40.75,-91.989 -40.92,-97.828 -0.17,-5.668 11.77,-11.262 15.45,-13.395 68.67,-39.879 462.87,-196.785 703.71,-334.558 l -1067.99,0.039 c 22.76,39.324 57.86,104.945 58.67,157.222 2.34,31.856 2.34,7.168 1.08,54.035 0.01,7.809 2.56,31.586 -9.1,31.961 -8.05,0.262 -11.28,-1.769 -17.45,-5.316 -10.69,-6.141 -21.15,-55.938 -33.51,-76.465 -33.03,-54.851 -73.32,-113.797 -122.68,-161.48 l -430.8,0.043 c 13.69,31.609 20.99,67.957 20.99,84.964 0,20.301 -7.07,80.684 -36.78,88.938 -17.16,0.113 -31.38,-22.484 -32.82,-48.34 -0.54,-9.648 7.73,-40.598 7.73,-50.269 0,-20.301 -10.15,-59.934 -46.4,-59.934 -9.67,0 -73.47,23.199 -83.14,23.199 -28.21,0 -46.38,-14.578 -54.68,-38.523 l -128.09,-0.035 c -14.16,8.543 -30.19,15.621 -44.26,22.351 -116.01,55.586 -194.09,182.137 -276.86,290.817 0,0 -11.76,3.289 -17.82,-0.106 -9.89,-5.543 -4.37,-28.738 -4.37,-28.738 26.42,-86.383 63.75,-192.59 124.75,-284.262 l -144.75,-0.062 c -6.26,9.593 -11.86,18.488 -16.53,26.418 -20.3,34.804 -96.69,145.05 -104.43,157.617 -9.67,15.465 -52.39,94.691 -75.59,94.691 -9.67,0 -19.34,-13.539 -19.34,-23.207 0,-23.406 70.63,-142.211 142.41,-255.562 l -958.427,0.043 C 502.406,603.25 774.227,694.313 1054.14,841.188 l -4.47,12.093 c -2.99,36.348 -89.721,167.379 -148.295,270.769 l 430.035,0.05"
         style="fill:#1c63b7;fill-opacity:1;fill-rule:evenodd;stroke:none"
         id="path18"
         inkscape:connector-curvature="0" /><path
         d="m 1381.87,1364.1 c 6.52,-13.06 11.94,-24.43 11.94,-29.39 -4.15,-23.69 -36.94,-104.75 -36.94,-113.66 0,-6.37 -15.15,-59.02 -25.46,-96.9 l -430.035,-0.05 c -29.594,52.2 -52,97.39 -52.777,119.74 -1.325,38.12 25.902,79.8 64.695,120.33 z m 303.86,0 c -7.99,-5.56 -15.36,-10.29 -19.32,-10.29 -7.09,0 -10.47,6.01 -14.45,10.33 z m 188.8,0 c -15.55,-3.67 -71.42,-29.39 -87.58,-28.93 -8.83,0.26 -27.97,15.85 -44.43,28.99 z m 132.2,0 c -21.76,-9.19 -44.51,-19.72 -68.31,-19.72 -8.9,0 -45.02,17.03 -58.22,19.73 z m 244.19,0 c 0.76,-10.89 4.92,-23.16 10.59,-28.82 5.32,-5.32 6.2,-12.17 15.87,-12.17 h 45.91 c 13.17,0 31.55,16.28 51.8,40.93 l 774.86,0.06 c 21.22,-56.68 -7.95,-123.33 -63.36,-240.05 l -442.46,0.05 c -4.67,30.09 -9.63,58.92 -14.44,81.48 -3.36,15.77 -7.54,16.61 -19.56,20.85 -13.34,-8.03 -20.9,-17.29 -24.29,-28.41 -8.18,-25.97 -19.7,-50.61 -33.86,-73.96 l -431.23,0.04 c -1.52,77.91 -89.38,90.74 -143.05,90.74 -9.67,0 -77.77,-14.41 -98.6,-15.46 -10.14,-0.52 -67.67,15.46 -67.67,38.66 0,33.35 86.03,38.67 106.34,38.67 9.66,0 114.07,-27.07 123.73,-27.07 36.25,0 90.87,21.75 90.87,77.34 0,15.56 -12.75,28.35 -29.03,37.13 z m -760.11,-240 c -13.42,22.33 -25.74,45.11 -36.51,66.88 -3.71,7.58 -8.69,17.07 -13.6,26.61 l -18.22,44.29 c 0.62,6.24 2.02,5.97 1.59,7.38 h 9.69 c 11.38,-9.65 82.06,-78.7 162.19,-145.17 l -105.14,0.01"
         style="fill:#1c63b7;fill-opacity:1;fill-rule:evenodd;stroke:none"
         id="path20"
         inkscape:connector-curvature="0" /><path
         d="m 996.754,1604.1 c -34.301,-18.02 -75.551,-33.51 -121.086,-33.51 -53.414,0 -96.09,12.35 -129.348,33.51 z m 306.236,0 c 9.97,-56.51 38.31,-145.83 41.59,-155.82 6.35,-19.37 13.6,-32.11 19.4,-46.61 4.48,-11.31 11.68,-25.21 17.89,-37.6 l -468.573,0.03 c 90.193,94.29 242.913,182.25 244.643,204.56 -8.91,11.75 -17.84,23.54 -26.61,35.46 z m 621.52,0 c 8.81,-15.08 28.2,-25.77 45.45,-25.77 25.27,0 45.1,9.84 58.35,25.77 h 71.82 c 0.29,-0.83 0.71,-1.59 1.26,-2.24 3.59,-4.22 3.91,-4.2 13.58,-4.2 8.49,0 16.62,2.3 23.83,6.38 l 71.22,0.06 c -6.86,-7.87 -13.27,-13.78 -17.19,-15.35 -11.6,-4.34 -17.15,-10.98 -26.78,-19.24 -7.95,-10.46 -6.69,-11.72 -15.04,-25.95 -13.26,-22.61 -30.74,-20.67 -46.89,-17.57 -39.33,7.53 -57.3,14.31 -89.69,14.31 -9.66,0 -32.86,-25.84 -42.53,-25.84 -9.67,0 -23.74,5.69 -32.45,14.88 -4.83,4.83 -21.4,57.74 -50.4,57.74 -9.67,0 -62.16,-24.22 -71.82,-24.22 -23.48,0 -50.28,18.74 -65.93,41.18 z m 890.45,0 c -1.11,-3.2 -1.81,-6.01 -2.03,-8.37 213.16,-109.41 311.52,-163.32 337.02,-231.56 l -774.86,-0.07 c 61.51,74.81 140.26,226.99 142.44,234.99 0.44,1.61 0.89,3.27 1.34,4.99 z m -1163,-240 c -1.44,1.61 -2.96,2.95 -4.77,3.71 2.93,6.86 7.87,65.8 46.54,65.8 9.66,0 44.23,-25.42 53.9,-25.42 54.62,0 48.82,46.4 94.73,46.4 54.14,0 58.49,-65.74 100.54,-65.74 34.31,0 45.91,61.87 94.74,61.87 39.63,0 78.78,-46.4 100.53,-46.4 22.23,0 45.44,30.93 85.07,30.93 9.67,0 23.77,-21.36 27.64,-33.45 3.38,-11.11 -0.09,-22.62 -0.09,-34.22 0,-1.15 0.04,-2.32 0.13,-3.51 l -147.58,0.03 c -15.57,8.42 -34.36,13.15 -48.3,13.15 -15.53,0 -31.63,-6.19 -48.31,-13.2 l -126.53,0.05 c -1.14,0.24 -2.11,0.36 -2.87,0.36 -0.68,0 -1.63,-0.14 -2.8,-0.42 l -132.01,0.06 c -12.03,9.66 -22.63,17.94 -26.71,17.94 -5.71,0 -18.54,-9.85 -30.08,-17.91 l -33.77,-0.03"
         style="fill:#1c63b7;fill-opacity:1;fill-rule:evenodd;stroke:none"
         id="path22"
         inkscape:connector-curvature="0" /><path
         d="m 787.398,1844.1 c 8.106,-31.57 36.102,-76.24 74.934,-76.24 9.664,0 30.711,3.05 45.211,9.33 12.082,4.84 24.754,11.27 31.02,15.51 6.308,4.26 26.156,26.85 46.324,51.43 l 180.523,-0.03 c -6.88,-10.81 -11.34,-26.32 -11.34,-51.15 0,-9.68 3.9,-58.84 8.73,-85.43 2.91,-15.95 12.93,-33.2 19.7,-41.9 3.87,-5.32 37.31,-21.55 46.98,-21.55 26.58,0 41.95,50.97 62.05,58.01 21.74,-6.2 5.91,-57.02 9.19,-83.2 0.58,-4.58 1.34,-9.54 2.27,-14.78 h -171.66 c -13.37,18.19 -26.34,36.66 -38.23,55.74 -13.13,0.69 -47.76,-30.09 -96.346,-55.69 L 746.32,1604.1 c -75.797,48.22 -102.707,142.19 -96.414,240.06 z m 1395.242,0 v -47.78 c 0,-86.52 58,-61.87 58,-140.65 0,-10.78 -16.31,-35.33 -30.62,-51.62 l -71.22,0.05 c 16.62,9.31 28.37,28.06 28.37,49.63 0,39.16 -15.69,51.09 -57.23,67.29 3.11,-36.56 6.74,-47.73 6.97,-65.35 0.12,-9.67 -15.48,-26.59 -15.19,-36.26 0,0 -3.65,-9.45 -1.59,-15.3 l -71.82,-0.01 c 12.35,14.85 18.99,34.98 18.99,57.37 0,9.67 -19.33,77.34 -19.33,87 0,9.67 -0.06,5.33 0.96,9.51 -0.97,11.92 -1,23.72 -2.42,30.93 0.58,1.47 3.17,26.61 5.88,55.18 z m 1097.71,0 c -8.53,-31.17 -21.58,-60.45 -39.99,-85.59 -119.91,-163.74 -207.86,-100.07 -363.09,-56.36 -13.91,-18.92 -52.82,-71.11 -62.31,-98.11 l -296.09,0.06 c 7.05,26.71 15.65,65.69 15.65,74.77 0,9.67 7.25,52.3 3.86,114.17 -0.86,18.02 0.98,34.83 4.21,51.05 z m -1529.05,-240 c -8.2,11.7 -13.34,24.47 -13.34,36.1 0,2.42 0.16,33.92 27.23,33.92 19.81,0 12.94,-23.54 32.8,-33.92 24.18,15.79 57.91,58 67.57,58 9.67,0 13.99,-0.68 20.27,-4.55 14.5,-8.7 33.87,-48.13 33.87,-72.78 0,-5.95 1.78,-11.64 4.81,-16.82 l -173.21,0.05"
         style="fill:#1c63b7;fill-opacity:1;fill-rule:evenodd;stroke:none"
         id="path24"
         inkscape:connector-curvature="0" /><path
         d="m 1234.81,2084.1 4.33,-136.44 c -5.87,-83.31 -51.94,-69.61 -73.73,-103.62 l -180.523,0.06 c 24.633,30.05 49.743,63.05 51.243,69.25 3.07,12.68 0,20.04 0,20.04 -16.73,4.55 -34.59,16.22 -44.263,16.22 -5.801,0 -43.504,-69.61 -87.004,-69.61 -9.664,0 -17.043,3.83 -24.422,5.18 -30.601,19.65 -15.574,61.68 -30.691,82.54 -12.66,6.01 -26.09,5.08 -36.805,4.78 -14.726,-31.77 -27.949,-78.48 -27.949,-111.84 0,-4.73 0.824,-10.39 2.402,-16.55 l -137.492,-0.01 c 5.211,81.04 33.153,164.67 74.953,227.26 -2.14,4.31 -4.218,8.55 -6.238,12.74 z m 921.66,0 c 7.9,-22.01 64.84,-54.42 64.84,-68.81 0,-40.12 -61.87,-8.22 -61.87,-42.54 0,-9.66 23.2,-107.79 23.2,-117.45 v -11.2 h -150.25 c 3.48,36.56 7.18,78.76 7.18,84.19 0,52.18 -21.61,102.86 -30.78,155.82 z m 245.62,0 c -6.46,-15.2 -15.36,-28.91 -25.38,-36.84 -14.01,-11.12 -35.53,-20.37 -45.2,-20.37 -9.67,0 -27.18,2.01 -31.56,3.33 -33.31,10.05 -51.29,30.77 -60.02,53.93 z m 118.18,0 c -6.15,-5.39 -24.42,-35.84 -24.42,-51.41 0,-9.67 3.07,-47.05 -5.14,-64.93 -18.37,-40.61 -100.23,-91.68 -134.07,-91.68 -10.14,0 -30.93,6.28 -30.93,34.8 0,9.67 19.33,27.07 19.33,36.74 0,15.95 -12.97,12.74 -31.18,24.04 0,0 -7.21,3.75 0,13.57 26.14,10.88 52.86,14.15 79.92,19.95 21.49,4.61 56.13,46.97 69.5,78.98 z m 228.73,0 c 8.25,-13.2 17.21,-25.86 26.68,-37.18 53.65,-63.81 140.68,-101.23 201.59,-101.23 15.94,0 145,21.27 145,79.27 0,20.41 -3.34,39.05 -12.11,59.09 l 160.45,0.05 c 3.44,-10.41 6.78,-22.21 10.19,-35.94 15.3,-61.39 17.91,-137.03 -0.45,-204.09 l -737.76,0.03 c 9.41,47.32 30.6,89.63 30.6,142.19 0,9.67 -4.42,46.88 -9.25,66.22 -3.78,14.5 -14.9,26.78 -26.03,31.6 z m 254.73,0 c -6.09,-6.94 -12.53,-13.11 -19.71,-17.35 -21.26,-12.09 -50.93,-21.46 -60.59,-21.46 -9.67,0 -29.71,2.2 -42.27,7.95 -19.2,8.79 -35.95,19.09 -49.82,30.83 l 172.39,0.03"
         style="fill:#1c63b7;fill-opacity:1;fill-rule:evenodd;stroke:none"
         id="path26"
         inkscape:connector-curvature="0" /><path
         d="m 1286.58,2484.1 c -27.51,-58.6 -59.04,-110.28 -59.04,-171.06 l 7.27,-228.94 H 718.621 c -146.656,304.55 32.625,300.58 21.707,381.69 -0.832,6.18 -1.734,12.26 -2.687,18.25 z m 1915.06,0 c 0.66,-7.99 1.26,-15.42 1.83,-22.18 7.64,-90.22 -44.99,-158.82 -50.27,-235.88 -0.67,-9.85 15.27,-20.44 21.52,-25.65 56.08,-46.73 77.66,-61.53 95.89,-116.32 l -160.45,0.03 c -6.81,15.52 -16.88,31.93 -31.2,50.68 -34.01,13.2 -52.14,-24.35 -75.23,-50.67 l -172.39,-0.01 c -29.05,24.53 -45.48,55.36 -45.48,91.67 0,48.82 36.93,119.88 106.53,127.13 6.29,0.49 17.2,14.98 17.2,25.61 0,38.67 -61.86,92.81 -100.53,92.81 -66.7,0 -116.01,-138.25 -116.01,-181.75 0,-24.65 11.26,-67.59 27.01,-101.8 8.01,-17.39 17.83,-36 28.94,-53.72 l -211.09,0.05 c -5.94,2.58 -11.88,3.03 -16.73,0.58 -0.26,-0.14 -0.56,-0.36 -0.91,-0.65 l -56.99,0.07 c 3.47,8.37 5.5,15.99 5.5,22.06 0,10.15 -27.07,40.61 -50.26,40.61 -9.67,0 -6.66,-5.15 -6.66,-5.15 2.98,-15.15 -1.28,-37.61 -9.77,-57.56 l -162.16,0.04 c -5.08,13.55 -7.02,27.87 -7.02,41.4 0,12.57 4.94,7.9 -5.2,21.17 -10.37,-2.9 -72.14,-30.36 -72.14,-57.91 0,-1.51 0.31,-3.08 0.9,-4.72 l -147.68,0.06 c -2.46,14.26 -4.02,28.68 -4.02,43.33 0,28.52 5.19,103.49 31.29,128.14 52.69,49.79 172.68,111.61 268.38,111.61 9.67,0 69.77,-13.84 99.74,-27.86 9.18,-3.87 38.07,-27.19 51.52,-30.09 19.65,16.36 32.42,59.88 32.42,85.02 0,31.83 -14.68,60.94 -33.42,89.87 z m -893.33,-321.87 c -14.02,0 -25.36,-23.2 -25.13,-30.93 0.45,-15.71 13.05,-38.67 30.93,-38.67 9.67,0 31.45,17.52 30.93,32.87 -0.52,15.46 -14.5,36.73 -36.73,36.73 z m 38.67,127.61 c -9.67,0 -29,-7.73 -38.67,-7.73 -1.45,0 -48.33,-7.25 -48.33,-25.14 0,-34.8 -73.47,-23.2 -73.47,-69.6 0,-9.67 7.73,-21.27 17.4,-21.27 11.6,0 63.8,30.94 104.4,30.94 23.2,0 63.8,-19.34 69.6,-19.34 9.67,0 9.1,4.43 13.51,9.36 -4.04,8.9 -7.71,11.91 -7.71,21.58 0,9.66 3.3,4.43 6.39,7.83 h 10.35 c 22.63,-18.99 41.83,-42.07 58.98,-58.08 9.15,16.51 13.22,34.78 13.22,44.45 0,42.54 -61.64,74.42 -94.51,78.29 -12.57,1.45 -21.5,8.71 -31.16,8.71"
         style="fill:#1c63b7;fill-opacity:1;fill-rule:evenodd;stroke:none"
         id="path28"
         inkscape:connector-curvature="0" /><path
         d="m 1070.54,2884.1 c -6.78,-12.53 -11.94,-23.49 -13.14,-27.76 -2.72,-9.71 -3.86,-17.4 -3.86,-27.07 0,-15.46 18.36,-36.73 46.4,-36.73 9.67,0 38.21,15.67 48.36,27.76 13.54,15.95 23.66,38.94 23.66,59.25 0,1.51 0.01,3.02 0.04,4.52 l 217.93,0.03 c -48.98,-65.6 -73.45,-153.26 -73.45,-253.97 0,-9.67 5.37,-44.97 1.02,-63.33 -7.52,-29.81 -18.84,-56.91 -30.93,-82.67 l -548.929,-0.03 c -11.989,75.14 -32.379,135.88 -32.118,218.53 0,0 -1.957,48.1 5.016,65.59 27.246,68.34 80.203,60.39 95.301,115.83 z m 2005.96,0 c 96.77,-74.38 116.15,-290.6 125.14,-400 H 2454.7 c -33.05,51.04 -78.72,101.51 -78.72,165.36 0,9.68 19.33,117.95 19.33,127.61 0,9.67 -3.4,29.75 -5.33,44.74 -2.95,21.01 -12.08,42.37 -25.07,62.27 z m -470.45,-18.08 c -9.66,0 -22.47,0.29 -28.69,-4.74 -3.12,-2.52 -4.8,-6.71 -4.17,-14.6 1.09,-13.98 24.55,-28.99 31.44,-35.14 22.54,-20.15 49.64,-43.33 68.01,-68.47 31.41,-43.98 48.89,-97.73 82.72,-139.3 27.07,-32.87 47.9,-50.98 71.1,-50.98 9.67,0 11.18,9.28 11.18,9.28 4.24,16.22 4.61,27.58 4.61,37.25 0,9.66 -2.93,20.5 -5.19,29.2 -19.4,74.72 -59.25,190.49 -157.09,215.69 -24.07,6.2 -64.25,21.81 -73.92,21.81"
         style="fill:#1c63b7;fill-opacity:1;fill-rule:evenodd;stroke:none"
         id="path30"
         inkscape:connector-curvature="0" /><path
         d="m 805.84,2884.1 c 2.785,10.18 4.281,22.56 4.09,37.98 -2.094,168.4 141.773,237.86 267.98,304.85 23.96,12.72 3.06,156.59 135.18,229.52 154.14,85.1 360.03,156.8 511.33,39.87 136.42,67.35 313.46,87.29 463.89,96.67 111.73,6.97 161.51,-42.85 222.94,-125.38 l 15.07,-25.11 c 108.89,73.11 179.18,44.59 222.27,-66.05 180.8,134.18 490.64,-210.68 377.01,-456.3 l 6.56,-14.18 c 16.35,-4.21 31.07,-11.73 44.34,-21.92 l -711.59,0.05 c -33.95,51.98 -94.3,94.05 -139.74,94.05 -9.66,0 -164.33,-15.47 -174,-15.47 -95.71,0 -156.61,61.87 -261.01,61.87 -9.67,0 -105.02,-13.05 -154.8,-16.43 -110.59,-7.8 -192.39,-52.96 -245.43,-124.01 L 1172,2884.1 c 1.29,70.31 33.09,124.99 113.54,124.99 9.67,0 48.34,-11.6 58.01,-11.6 9.66,0 9.06,35.76 19.93,51.07 43.11,60.7 97.52,121.07 163.98,138.42 3.63,-0.02 10.93,1.1 57.64,-0.01 38.41,-7.7 81.58,-16.79 119.28,-31.77 12.57,-4.83 80.46,-61.04 107.05,-61.04 7.73,0 30.93,9.18 30.93,23.2 0,43.5 -112.14,60.91 -112.14,104.41 0,20.78 35.77,23.2 40.61,23.2 56.55,0 166.76,-56.39 202.05,-96.03 6.76,-7.25 31.89,-89.58 53.16,-89.58 17.39,0 40.59,28.52 40.59,46.4 0,9.67 3.87,36.74 3.87,46.41 0,9.66 -4.25,36.91 -13.43,49.48 -27.55,37.22 -115.14,93.59 -154.77,93.59 -1.45,0 -102.96,-19.34 -119.87,-19.34 -9.67,0 -63.6,9.55 -92.11,20.66 -21.75,8.22 -40.3,25.47 -57.7,36.1 -20.78,12.57 -66.74,32.19 -76.4,32.19 -9.67,0 -25.13,3.86 -34.8,3.86 -30.94,0 -108.71,-32.87 -138.69,-55.93 -10.87,-8.37 -35.32,-18.51 -35.32,-36.88 0,-9.66 2.69,-13.33 4.45,-14.9 9.95,-1.78 124.81,3.32 124.81,3.32 11.27,-3.78 29.28,-19.35 29.28,-29.02 0,-22.71 -70.4,-69.77 -80.07,-74.12 -17.88,-8.22 -45.05,-6.82 -61.97,-15.52 -102.95,-54.14 -197.82,-131.51 -266.46,-218.51 -8.64,-11 -18.91,-28.13 -26.91,-43 z m 1703.54,438.21 c -30.45,0 -131.26,-49.6 -144.38,-59.48 -44.28,-33.36 -61.22,-67.8 -74.9,-125.01 -3.83,-16.03 -1.06,-31.12 1.84,-42.24 4.35,-15.46 14.4,-32.14 23.58,-43.26 9.67,-11.6 29.72,-21.36 36,-34.41 12.57,-25.62 6.52,-58.86 22,-77.71 30.44,-37.7 50.79,-39.39 79.79,-39.39 65.26,0 76.37,61.87 170.14,61.87 9.67,0 41.83,-7.44 59.27,-16.31 11.82,-6.01 32.45,-36.93 40.39,-25.88 8.25,11.5 8.61,24.79 8.61,34.46 0,58.98 -102.47,116.01 -164.34,116.01 -9.67,0 -69.99,-9.22 -104.79,-16.48 -18.85,-3.86 -51.81,-18.32 -61.48,-18.32 -14.02,0 -21.26,16.92 -21.26,32.86 0,9.67 7.56,42.48 15.46,65.75 7.78,22.87 99.21,145.79 138.01,158.2 4.16,2.57 5.12,5.67 5.32,10.13 0.22,4.88 -0.82,7.04 -5.32,11.33 -8.67,6.3 -14.27,7.88 -23.94,7.88"
         style="fill:#1c63b7;fill-opacity:1;fill-rule:evenodd;stroke:none"
         id="path32"
         inkscape:connector-curvature="0" /><path
         d="m 1614.22,2166.1 c -22.72,0 -34.8,-11.6 -34.8,-34.8 0,-12.57 4.83,-34.8 32.87,-34.8 15.46,0 29,20.78 29,38.66 0,7.25 -0.97,30.94 -27.07,30.94 z m -90.99,150.81 c -19.59,-3.91 -40.3,-6.45 -54.8,-12.73 -40.61,-18.38 -90.09,-77.18 -90.09,-118.75 0,-13.53 11.61,-34.8 34.81,-34.8 30.93,0 54.13,58.01 85.06,58.01 9.67,0 8.31,0.56 11.75,-2.68 -0.14,-10.86 -0.14,-22.46 0.59,-35.58 48.05,10.76 69.56,20.87 110.74,15.53 0.66,5.32 4.53,5.32 4.53,14.99 0,9.67 -7.73,9.67 -7.73,19.34 0,9.66 -0.57,4.43 2.61,7.79 h 25.91 c 9.66,-0.06 35.28,-27.13 44.94,-27.13 9.67,0 11.61,9.67 11.61,19.34 0,52.69 -80.76,86.95 -121.58,96.65 -12.22,1.65 -26.45,2.49 -58.35,0.02 z m 50.45,46.4 c 31.12,-3.88 34.74,0 38.73,0 31.05,-3.88 69.39,-6.01 97.43,-20.51 48.34,-24.65 120.48,-69.61 161.57,-119.4 6.76,-8.22 21.22,-67.93 21.22,-86.3 0,-9.67 -27.14,-117.16 -27.07,-148.88 0.05,-22.86 19.33,-112.14 19.33,-121.81 0,-19.81 2.54,-52.84 -16.64,-79.12 -17,2.29 -76.16,97.01 -76.16,131.33 0,50.75 46.41,58.97 46.41,127.61 0,12.56 -2.42,23.2 -15.47,23.2 -9.67,0 -50.75,-46.41 -60.42,-46.32 0,0 -20.75,-6.41 -30.91,0.07 -4.34,2.77 -9.21,9.44 -9.21,9.44 16.24,26.72 46.4,62.91 46.4,85.14 0,15.47 -40.83,45.94 -51.77,44.52 -23.51,-7.69 -5.76,-40.9 -7.7,-56.37 -4.83,-34.81 -50.73,-82.89 -85.53,-82.89 -16.92,0 -60.37,18.98 -70.04,29.13 -40.6,43.02 -20.83,49.18 -20.83,86.88 0,9.67 -3.87,5.8 -3.3,12.17 -2.5,-0.57 -2.5,3.3 -12.17,3.3 -25.62,0 -50.27,-40.61 -50.27,-56.07 0,-29.48 19.26,-66.75 61.68,-76.5 -12.58,-26.84 -21.56,-29.84 -40.41,-29.84 -72.98,0 -64.28,96.67 -96.67,96.67 -9.67,0 -19.33,-7.73 -29,-7.73 -9.67,0 -28.3,17.84 -37,25.09 -15.95,13.05 -13.27,27.59 -13.27,36.78 0,133.89 109.12,211.23 261.07,220.41"
         style="fill:#1c63b7;fill-opacity:1;fill-rule:evenodd;stroke:none"
         id="path34"
         inkscape:connector-curvature="0" /></g></g></svg>